<svg xmlns="http://www.w3.org/2000/svg" viewBox="0 0 774.32 160.24"><defs><style>.cls-1{fill:#003459;}.cls-2{fill:#30d5c8;}</style></defs><g id="Layer_2" data-name="Layer 2"><g id="Layer_1-2" data-name="Layer 1"><path class="cls-1" d="M.14,116,18.84,9.89C19.92,4.5,25.14,0,30.53,0H62.72c21.4,0,35.61,17.26,31.83,38.49C90.78,59.89,70.45,77,49.23,77.15H26.93L20.1,116a12.45,12.45,0,0,1-11.69,9.89C2.83,125.89-.76,121.39.14,116ZM59.3,20H37L30.53,57.19H52.65c10.25,0,20.14-8.45,21.94-18.7S69.56,20,59.3,20Z"/><path class="cls-1" d="M103.58,112.58c-6.11-8.27-9-19.42-6.65-31.47,2-12.23,8.63-23.38,17.62-31.65,9.18-8.1,21-13.13,32.91-13.13a36,36,0,0,1,22.48,7.55,11.68,11.68,0,0,1,10.61-7.55c5.4,0,8.82,4.13,7.74,9.53l-12.23,70.32c-1.08,5.39-5.94,9.71-11.15,9.71a7.76,7.76,0,0,1-8.09-7.74c-7.56,4.68-16.37,7.74-25.18,7.74C119.77,125.89,109.7,120.67,103.58,112.58Zm12.23-31.47c-1.26,7.19.36,13.67,4,18.34a18.34,18.34,0,0,0,15.28,7.37,26.22,26.22,0,0,0,17.63-7.37,31.59,31.59,0,0,0,10.43-18.34,22.74,22.74,0,0,0-4-18.53,18.49,18.49,0,0,0-15.1-7.37c-6.48,0-12.59,2.88-17.81,7.37A32.51,32.51,0,0,0,115.81,81.11Z"/><path class="cls-1" d="M198.7,81.29c4.32-24.64,27.16-45.14,51.61-45.14a37,37,0,0,1,23,7.73l5.4-34A12.24,12.24,0,0,1,290.24.18c5.39,0,9,4.32,8.09,9.71L280,116.36c-1.08,5.39-6.12,9.89-11.51,9.89a8,8,0,0,1-8.28-7.74c-7.73,4.68-16.54,7.74-25.71,7.74C210,126.07,194.38,105.75,198.7,81.29Zm19.6,0a21.75,21.75,0,0,0,3.78,18,20.17,20.17,0,0,0,15.82,7.38c6.66,0,12.95-2.88,18.35-7.38a31,31,0,0,0,10.25-18c1.26-7.38-.36-13.67-3.78-18.17a19.64,19.64,0,0,0-15.82-7.37,27.67,27.67,0,0,0-18.35,7.37A29.88,29.88,0,0,0,218.3,81.29Z"/><path class="cls-1" d="M303.92,81.29c4.32-24.64,27.16-45.14,51.62-45.14a37,37,0,0,1,23,7.73l5.4-34A12.24,12.24,0,0,1,395.46.18c5.39,0,9,4.32,8.09,9.71L385.21,116.36c-1.08,5.39-6.12,9.89-11.51,9.89a8,8,0,0,1-8.27-7.74c-7.74,4.68-16.55,7.74-25.72,7.74C315.25,126.07,299.6,105.75,303.92,81.29Zm19.6,0a21.75,21.75,0,0,0,3.78,18,20.18,20.18,0,0,0,15.83,7.38c6.65,0,12.94-2.88,18.34-7.38a30.92,30.92,0,0,0,10.25-18c1.26-7.38-.36-13.67-3.78-18.17a19.64,19.64,0,0,0-15.82-7.37,27.67,27.67,0,0,0-18.35,7.37A29.88,29.88,0,0,0,323.52,81.29Z"/><path class="cls-1" d="M435.57.36c5.39,0,9,4.32,8.09,9.89L425,116.18a12.28,12.28,0,0,1-11.69,10.07c-5.4,0-9.18-4.5-8.28-10.07L423.7,10.25A12.46,12.46,0,0,1,435.57.36Z"/><path class="cls-1" d="M447.44,81.11c4.49-24.46,27.15-45,51.79-45,23.56,0,38.85,17.44,35.79,41.72a1.35,1.35,0,0,1-.18.9,5.26,5.26,0,0,1-.36,1.62c-1.26,4.31-5.76,7.19-10.61,7.19H466.5a19.67,19.67,0,0,0,3.95,11.87c2.88,4.32,9.72,7.55,15.83,8.09,6.84.54,15.47-1.43,21.4-6.83,6.84-6.47,12.59-.72,12.95-.36,3.06,3.42,2.7,8.45-.72,11.87-10.79,10.07-20.86,13.85-37,13.85C458.23,125.89,442.94,105.57,447.44,81.11ZM468.3,72.3h50.89c-.36-7.2-7.55-17.81-23-19.07C480.71,54,471.17,64.92,468.3,72.3Z"/><path class="cls-2" d="M674.76,10.07l-11.33,64c-5,28.6-32.38,52-61.15,52s-47.84-23.38-42.8-52l11.15-64A12.46,12.46,0,0,1,582.5.18a8,8,0,0,1,8.09,9.89l-11.33,64c-3.06,17.63,8.81,32,26.44,32,17.8,0,34.71-14.39,37.76-32l11.33-64A12.27,12.27,0,0,1,666.48.18C672.06.18,675.66,4.5,674.76,10.07Z"/><path class="cls-2" d="M773.61,81.29c-4.32,24.64-27.52,45.14-51.8,45.32-9-.18-16.9-2.88-23-7.74l-5.39,31.48c-1.08,5.39-6.3,9.89-11.69,9.89s-9-4.5-8.09-9.89L692.14,46a12.06,12.06,0,0,1,11.51-9.89,7.72,7.72,0,0,1,8.09,7.55,51.59,51.59,0,0,1,25.9-7.55C762.28,36.15,777.92,56.65,773.61,81.29Zm-19.61,0c1.26-7.2-.18-13.49-4-18.17a20.1,20.1,0,0,0-15.65-7.37c-6.65,0-13.31,2.88-18.7,7.37a31.58,31.58,0,0,0-10.07,18.17,21.19,21.19,0,0,0,3.77,18,19.79,19.79,0,0,0,15.83,7.55c6.83,0,12.95-2.87,18.34-7.55A28.3,28.3,0,0,0,754,81.29Z"/></g></g></svg>