<svg xmlns="http://www.w3.org/2000/svg" viewBox="0 0 774.32 749.18"><defs><style>.cls-1{fill:#30d5c8;}.cls-2{fill:#003459;}</style></defs><g id="Layer_2" data-name="Layer 2"><g id="Layer_1-2" data-name="Layer 1"><path class="cls-1" d="M311.24,473.4H457.78c-28.55,38-58.38,75.13-89.94,110.85-12.63,14.29-24.8,29-38.5,42.33,0,0-.11.09-.15.14-3.9,3.14-7.33,6.77-11.12,10a.53.53,0,0,0-.15.12c-15.55,15.88-31.54,31.29-48.41,45.76-21.14,18.13-42.73,35.27-65.46,51.35-5.77,4.08-11.56,8.17-18,11.12s-13.52,4.72-20.52,3.88c-5.81-.71-21.15-9.9-35.69-20.23Z"/><path class="cls-1" d="M650.54,112.89c-10.8,48.84-29.54,94.61-51.89,139.29q-2.85,5.69-5.76,11.32H460.33L647.18.44a2.37,2.37,0,0,1,.93,1.38l4.44,15.55a134.4,134.4,0,0,1,3.73,23.76A254.13,254.13,0,0,1,650.54,112.89Z"/><path class="cls-2" d="M178.31,473.4H311.24L129.88,728.74C115.34,718.42,101.61,707,99,701.7c-3.09-6.32-3.77-13.63-3.09-20.65s2.64-13.84,4.59-20.62c7.69-26.76,16.77-52.79,26.92-78.72,8.12-20.7,17.4-40.87,27.27-60.79a.89.89,0,0,0,.08-.17c1.81-4.64,4.1-9.1,5.79-13.8a1.54,1.54,0,0,1,.08-.19C166,495.34,172.08,484.34,178.31,473.4Z"/><path class="cls-2" d="M647.18.44,460.33,263.5H313c34.52-47.2,71.62-92.25,112.5-134.32,34.82-35.84,71.88-68.59,114.42-94.87A253.83,253.83,0,0,1,605.76,5.25,135.68,135.68,0,0,1,629.43.94L645.57,0A2.37,2.37,0,0,1,647.18.44Z"/><path class="cls-2" d="M.14,423.15,18.84,317c1.08-5.39,6.3-9.89,11.69-9.89H62.72c21.4,0,35.61,17.27,31.83,38.49-3.77,21.4-24.1,38.48-45.32,38.66H26.93L20.1,423.15A12.45,12.45,0,0,1,8.41,433C2.83,433-.76,428.54.14,423.15Zm59.16-96H37l-6.47,37.23H52.65c10.25,0,20.14-8.45,21.94-18.7S69.56,327.11,59.3,327.11Z"/><path class="cls-2" d="M103.58,419.73c-6.11-8.27-9-19.42-6.65-31.47,2-12.23,8.63-23.38,17.62-31.65,9.18-8.1,21-13.13,32.91-13.13A36,36,0,0,1,169.94,351a11.7,11.7,0,0,1,10.61-7.55c5.4,0,8.82,4.14,7.74,9.53l-12.23,70.32c-1.08,5.39-5.94,9.71-11.15,9.71a7.75,7.75,0,0,1-8.09-7.73C149.26,430,140.45,433,131.64,433,119.77,433,109.7,427.82,103.58,419.73Zm12.23-31.47c-1.26,7.19.36,13.67,4,18.34A18.35,18.35,0,0,0,135.05,414a26.23,26.23,0,0,0,17.63-7.38,31.59,31.59,0,0,0,10.43-18.34,22.72,22.72,0,0,0-4-18.52,18.47,18.47,0,0,0-15.1-7.38c-6.48,0-12.59,2.88-17.81,7.38A32.48,32.48,0,0,0,115.81,388.26Z"/><path class="cls-2" d="M198.7,388.44c4.32-24.64,27.16-45.14,51.61-45.14a37,37,0,0,1,23,7.73l5.4-34a12.24,12.24,0,0,1,11.51-9.71c5.39,0,9,4.32,8.09,9.71L280,423.51c-1.08,5.39-6.12,9.89-11.51,9.89a8,8,0,0,1-8.28-7.73c-7.73,4.67-16.54,7.73-25.71,7.73C210,433.22,194.38,412.9,198.7,388.44Zm19.6,0a21.75,21.75,0,0,0,3.78,18,20.17,20.17,0,0,0,15.82,7.38c6.66,0,12.95-2.88,18.35-7.38a31,31,0,0,0,10.25-18c1.26-7.37-.36-13.67-3.78-18.16a19.62,19.62,0,0,0-15.82-7.38,27.63,27.63,0,0,0-18.35,7.38A29.85,29.85,0,0,0,218.3,388.44Z"/><path class="cls-2" d="M303.92,388.44c4.32-24.64,27.16-45.14,51.62-45.14a37,37,0,0,1,23,7.73l5.4-34a12.24,12.24,0,0,1,11.51-9.71c5.39,0,9,4.32,8.09,9.71L385.21,423.51c-1.08,5.39-6.12,9.89-11.51,9.89a8,8,0,0,1-8.27-7.73c-7.74,4.67-16.55,7.73-25.72,7.73C315.25,433.22,299.6,412.9,303.92,388.44Zm19.6,0a21.75,21.75,0,0,0,3.78,18,20.18,20.18,0,0,0,15.83,7.38c6.65,0,12.94-2.88,18.34-7.38a30.92,30.92,0,0,0,10.25-18c1.26-7.37-.36-13.67-3.78-18.16a19.62,19.62,0,0,0-15.82-7.38,27.63,27.63,0,0,0-18.35,7.38A29.85,29.85,0,0,0,323.52,388.44Z"/><path class="cls-2" d="M435.57,307.51c5.39,0,9,4.32,8.09,9.89L425,423.33a12.28,12.28,0,0,1-11.69,10.07c-5.4,0-9.18-4.5-8.28-10.07L423.7,317.4A12.46,12.46,0,0,1,435.57,307.51Z"/><path class="cls-2" d="M447.44,388.26c4.49-24.46,27.15-45,51.79-45,23.56,0,38.85,17.44,35.79,41.72a1.35,1.35,0,0,1-.18.9,5.26,5.26,0,0,1-.36,1.62c-1.26,4.32-5.76,7.19-10.61,7.19H466.5a19.65,19.65,0,0,0,3.95,11.87c2.88,4.32,9.72,7.56,15.83,8.1,6.84.53,15.47-1.44,21.4-6.84,6.84-6.47,12.59-.72,12.95-.36,3.06,3.42,2.7,8.45-.72,11.87-10.79,10.07-20.86,13.85-37,13.85C458.23,433,442.94,412.72,447.44,388.26Zm20.86-8.81h50.89c-.36-7.2-7.55-17.81-23-19.07C480.71,361.1,471.17,372.07,468.3,379.45Z"/><path class="cls-1" d="M674.76,317.22l-11.33,64c-5,28.59-32.38,52-61.15,52s-47.84-23.38-42.8-52l11.15-64a12.46,12.46,0,0,1,11.87-9.89,8,8,0,0,1,8.09,9.89l-11.33,64c-3.06,17.62,8.81,32,26.44,32,17.8,0,34.71-14.39,37.76-32l11.33-64a12.27,12.27,0,0,1,11.69-9.89C672.06,307.33,675.66,311.65,674.76,317.22Z"/><path class="cls-1" d="M773.61,388.44c-4.32,24.64-27.52,45.14-51.8,45.32-9-.18-16.9-2.88-23-7.73L693.4,457.5c-1.08,5.39-6.3,9.89-11.69,9.89s-9-4.5-8.09-9.89l18.52-104.31a12.07,12.07,0,0,1,11.51-9.89,7.73,7.73,0,0,1,8.09,7.55,51.59,51.59,0,0,1,25.9-7.55C762.28,343.3,777.92,363.8,773.61,388.44Zm-19.61,0c1.26-7.19-.18-13.49-4-18.16a20.08,20.08,0,0,0-15.65-7.38c-6.65,0-13.31,2.88-18.7,7.38a31.55,31.55,0,0,0-10.07,18.16,21.19,21.19,0,0,0,3.77,18A19.8,19.8,0,0,0,725.23,414c6.83,0,12.95-2.88,18.34-7.56A28.3,28.3,0,0,0,754,388.44Z"/></g></g></svg>